<?xml version="1.0" encoding="UTF-8" standalone="no"?>
<!DOCTYPE svg PUBLIC "-//W3C//DTD SVG 1.1//EN"
 "http://www.w3.org/Graphics/SVG/1.1/DTD/svg11.dtd">
<!-- Generated by graphviz version 12.2.1 (20241206.2353)
 -->
<!-- Pages: 1 -->
<svg width="903pt" height="446pt"
 viewBox="0.00 0.00 902.64 445.84" xmlns="http://www.w3.org/2000/svg" xmlns:xlink="http://www.w3.org/1999/xlink">
<g id="graph0" class="graph" transform="scale(1 1) rotate(0) translate(4 441.84)">
<polygon fill="white" stroke="none" points="-4,4 -4,-441.84 898.64,-441.84 898.64,4 -4,4"/>
<!-- 30064771072 -->
<g id="node1" class="node">
<title>30064771072</title>
<ellipse fill="none" stroke="crimson" cx="264.64" cy="-401.95" rx="111.55" ry="35.89"/>
<text text-anchor="middle" x="264.64" y="-410.02" font-family="Times,serif" font-size="14.00">[CALL] @ 1</text>
<text text-anchor="middle" x="264.64" y="-395.77" font-family="Times,serif" font-size="14.00">&lt;operator&gt;.multiplication</text>
<text text-anchor="middle" x="264.64" y="-381.52" font-family="Times,serif" font-size="14.00">i * j</text>
</g>
<!-- 30064771073 -->
<g id="node2" class="node">
<title>30064771073</title>
<ellipse fill="none" stroke="crimson" cx="470.64" cy="-157.91" rx="100.94" ry="35.89"/>
<text text-anchor="middle" x="470.64" y="-165.98" font-family="Times,serif" font-size="14.00">[CALL] @ 1</text>
<text text-anchor="middle" x="470.64" y="-151.73" font-family="Times,serif" font-size="14.00">&lt;operator&gt;.assignment</text>
<text text-anchor="middle" x="470.64" y="-137.48" font-family="Times,serif" font-size="14.00">c = i * j</text>
</g>
<!-- 30064771072&#45;&gt;30064771073 -->
<g id="edge1" class="edge">
<title>30064771072&#45;&gt;30064771073</title>
<path fill="none" stroke="lightsalmon" d="M362.63,-384.52C432.43,-370.32 516.76,-347.13 533.64,-315.81 548.77,-287.73 543.63,-274.34 533.64,-244.04 528.58,-228.73 519.6,-213.91 509.97,-201.05"/>
<polygon fill="lightsalmon" stroke="lightsalmon" points="512.76,-198.94 503.82,-193.24 507.26,-203.27 512.76,-198.94"/>
<text text-anchor="middle" x="556.28" y="-273.75" font-family="Times,serif" font-size="14.00">CFG</text>
</g>
<!-- 30064771072&#45;&gt;30064771073 -->
<g id="edge2" class="edge">
<title>30064771072&#45;&gt;30064771073</title>
<path fill="none" stroke="lightgreen" d="M350.58,-378.9C384.5,-365.94 420.77,-345.98 443.64,-315.81 456.52,-298.82 463.68,-245.33 467.33,-205.5"/>
<polygon fill="lightgreen" stroke="lightgreen" points="470.81,-205.92 468.19,-195.66 463.84,-205.32 470.81,-205.92"/>
<text text-anchor="middle" x="492.34" y="-273.75" font-family="Times,serif" font-size="14.00">DDG: i * j</text>
</g>
<!-- 68719476738 -->
<g id="node3" class="node">
<title>68719476738</title>
<ellipse fill="none" stroke="limegreen" cx="344.64" cy="-279.93" rx="90.33" ry="35.89"/>
<text text-anchor="middle" x="344.64" y="-288" font-family="Times,serif" font-size="14.00">[IDENTIFIER] @ 1</text>
<text text-anchor="middle" x="344.64" y="-273.75" font-family="Times,serif" font-size="14.00">c</text>
<text text-anchor="middle" x="344.64" y="-259.5" font-family="Times,serif" font-size="14.00">c</text>
</g>
<!-- 30064771072&#45;&gt;68719476738 -->
<g id="edge3" class="edge">
<title>30064771072&#45;&gt;68719476738</title>
<path fill="none" stroke="lightgreen" d="M287.56,-366.56C296.34,-353.39 306.47,-338.19 315.73,-324.29"/>
<polygon fill="lightgreen" stroke="lightgreen" points="318.51,-326.43 321.14,-316.17 312.69,-322.55 318.51,-326.43"/>
<text text-anchor="middle" x="336.66" y="-334.76" font-family="Times,serif" font-size="14.00">DDG: i * j</text>
</g>
<!-- 128849018880 -->
<g id="node4" class="node">
<title>128849018880</title>
<ellipse fill="none" stroke="salmon" cx="470.64" cy="-35.89" rx="123.21" ry="35.89"/>
<text text-anchor="middle" x="470.64" y="-43.96" font-family="Times,serif" font-size="14.00">[METHOD_RETURN] @ 1</text>
<text text-anchor="middle" x="470.64" y="-29.71" font-family="Times,serif" font-size="14.00">BY_SHARING</text>
<text text-anchor="middle" x="470.64" y="-15.46" font-family="Times,serif" font-size="14.00">RET</text>
</g>
<!-- 30064771073&#45;&gt;128849018880 -->
<g id="edge4" class="edge">
<title>30064771073&#45;&gt;128849018880</title>
<path fill="none" stroke="lightsalmon" d="M470.64,-121.55C470.64,-109.58 470.64,-96.03 470.64,-83.34"/>
<polygon fill="lightsalmon" stroke="lightsalmon" points="474.14,-83.51 470.64,-73.51 467.14,-83.51 474.14,-83.51"/>
<text text-anchor="middle" x="483.76" y="-90.72" font-family="Times,serif" font-size="14.00">CFG</text>
</g>
<!-- 68719476738&#45;&gt;30064771073 -->
<g id="edge11" class="edge">
<title>68719476738&#45;&gt;30064771073</title>
<path fill="none" stroke="lightgreen" d="M377.53,-246.27C388.75,-235.25 401.42,-222.91 413.14,-211.79 417.44,-207.71 421.95,-203.47 426.47,-199.26"/>
<polygon fill="lightgreen" stroke="lightgreen" points="428.52,-202.13 433.48,-192.77 423.76,-197 428.52,-202.13"/>
<text text-anchor="middle" x="434.89" y="-212.74" font-family="Times,serif" font-size="14.00">DDG: c</text>
</g>
<!-- 68719476736 -->
<g id="node5" class="node">
<title>68719476736</title>
<ellipse fill="none" stroke="limegreen" cx="108.64" cy="-157.91" rx="90.33" ry="35.89"/>
<text text-anchor="middle" x="108.64" y="-165.98" font-family="Times,serif" font-size="14.00">[IDENTIFIER] @ 1</text>
<text text-anchor="middle" x="108.64" y="-151.73" font-family="Times,serif" font-size="14.00">i</text>
<text text-anchor="middle" x="108.64" y="-137.48" font-family="Times,serif" font-size="14.00">i</text>
</g>
<!-- 68719476738&#45;&gt;68719476736 -->
<g id="edge12" class="edge">
<title>68719476738&#45;&gt;68719476736</title>
<path fill="none" stroke="lightsalmon" d="M314.7,-245.93C302.33,-233.84 287.25,-220.91 271.64,-211.79 248.81,-198.46 222.19,-188.01 197.17,-180.05"/>
<polygon fill="lightsalmon" stroke="lightsalmon" points="198.21,-176.71 187.63,-177.12 196.16,-183.4 198.21,-176.71"/>
<text text-anchor="middle" x="304.82" y="-212.74" font-family="Times,serif" font-size="14.00">CFG</text>
</g>
<!-- 68719476736&#45;&gt;30064771072 -->
<g id="edge5" class="edge">
<title>68719476736&#45;&gt;30064771072</title>
<path fill="none" stroke="lightgreen" d="M117.67,-193.85C127.39,-227.19 145.08,-277.82 171.39,-315.81 182.86,-332.39 198.12,-348.04 212.97,-361.29"/>
<polygon fill="lightgreen" stroke="lightgreen" points="210.64,-363.91 220.49,-367.81 215.23,-358.62 210.64,-363.91"/>
<text text-anchor="middle" x="192.01" y="-273.75" font-family="Times,serif" font-size="14.00">DDG: i</text>
</g>
<!-- 68719476737 -->
<g id="node6" class="node">
<title>68719476737</title>
<ellipse fill="none" stroke="limegreen" cx="108.64" cy="-35.89" rx="90.33" ry="35.89"/>
<text text-anchor="middle" x="108.64" y="-43.96" font-family="Times,serif" font-size="14.00">[IDENTIFIER] @ 1</text>
<text text-anchor="middle" x="108.64" y="-29.71" font-family="Times,serif" font-size="14.00">j</text>
<text text-anchor="middle" x="108.64" y="-15.46" font-family="Times,serif" font-size="14.00">j</text>
</g>
<!-- 68719476736&#45;&gt;68719476737 -->
<g id="edge6" class="edge">
<title>68719476736&#45;&gt;68719476737</title>
<path fill="none" stroke="lightsalmon" d="M108.64,-121.55C108.64,-109.58 108.64,-96.03 108.64,-83.34"/>
<polygon fill="lightsalmon" stroke="lightsalmon" points="112.14,-83.51 108.64,-73.51 105.14,-83.51 112.14,-83.51"/>
<text text-anchor="middle" x="121.76" y="-90.72" font-family="Times,serif" font-size="14.00">CFG</text>
</g>
<!-- 68719476736&#45;&gt;68719476737 -->
<g id="edge7" class="edge">
<title>68719476736&#45;&gt;68719476737</title>
<path fill="none" stroke="lightgreen" d="M129.08,-122.53C131.79,-116.54 134.14,-110.24 135.64,-104.02 137.39,-96.72 136.86,-89.17 135,-81.88"/>
<polygon fill="lightgreen" stroke="lightgreen" points="138.35,-80.85 131.8,-72.53 131.73,-83.12 138.35,-80.85"/>
<text text-anchor="middle" x="157.33" y="-90.72" font-family="Times,serif" font-size="14.00">DDG: i</text>
</g>
<!-- 68719476737&#45;&gt;30064771072 -->
<g id="edge8" class="edge">
<title>68719476737&#45;&gt;30064771072</title>
<path fill="none" stroke="lightsalmon" d="M58.91,-66.26C39.78,-80.45 20.04,-99.36 9.64,-122.02 -3.67,-151.01 -2.57,-164.32 9.64,-193.79 43.2,-274.83 128.45,-333.26 191.18,-367"/>
<polygon fill="lightsalmon" stroke="lightsalmon" points="189.23,-369.92 199.7,-371.49 192.49,-363.73 189.23,-369.92"/>
<text text-anchor="middle" x="38.04" y="-212.74" font-family="Times,serif" font-size="14.00">CFG</text>
</g>
<!-- 68719476737&#45;&gt;30064771072 -->
<g id="edge9" class="edge">
<title>68719476737&#45;&gt;30064771072</title>
<path fill="none" stroke="lightgreen" d="M158.4,-66.24C177.54,-80.43 197.28,-99.34 207.64,-122.02 227.15,-164.75 217.29,-179.95 226.39,-226.04 234.28,-266.08 236.91,-275.95 245.64,-315.81 248.39,-328.39 251.4,-341.99 254.21,-354.56"/>
<polygon fill="lightgreen" stroke="lightgreen" points="250.78,-355.28 256.38,-364.28 257.62,-353.76 250.78,-355.28"/>
<text text-anchor="middle" x="247.01" y="-212.74" font-family="Times,serif" font-size="14.00">DDG: j</text>
</g>
<!-- 68719476737&#45;&gt;68719476736 -->
<g id="edge10" class="edge">
<title>68719476737&#45;&gt;68719476736</title>
<path fill="none" stroke="lightgreen" d="M71.45,-68.97C63.59,-79.55 58.86,-91.76 63.39,-104.02 64.75,-107.7 66.49,-111.3 68.5,-114.78"/>
<polygon fill="lightgreen" stroke="lightgreen" points="65.48,-116.56 73.92,-122.97 71.32,-112.7 65.48,-116.56"/>
<text text-anchor="middle" x="84.01" y="-90.72" font-family="Times,serif" font-size="14.00">DDG: j</text>
</g>
<!-- 111669149696 -->
<g id="node7" class="node">
<title>111669149696</title>
<ellipse fill="none" stroke="firebrick" cx="598.64" cy="-401.95" rx="78.67" ry="35.89"/>
<text text-anchor="middle" x="598.64" y="-410.02" font-family="Times,serif" font-size="14.00">[METHOD] @ 1</text>
<text text-anchor="middle" x="598.64" y="-395.77" font-family="Times,serif" font-size="14.00">:&lt;module&gt;</text>
<text text-anchor="middle" x="598.64" y="-381.52" font-family="Times,serif" font-size="14.00">None</text>
</g>
<!-- 111669149696&#45;&gt;68719476738 -->
<g id="edge13" class="edge">
<title>111669149696&#45;&gt;68719476738</title>
<path fill="none" stroke="lightsalmon" d="M544.77,-375.5C506.11,-357.23 453.72,-332.48 412.25,-312.88"/>
<polygon fill="lightsalmon" stroke="lightsalmon" points="413.86,-309.77 403.32,-308.66 410.87,-316.1 413.86,-309.77"/>
<text text-anchor="middle" x="492.38" y="-334.76" font-family="Times,serif" font-size="14.00">CFG</text>
</g>
<!-- 163208757248 -->
<g id="node8" class="node">
<title>163208757248</title>
<ellipse fill="none" stroke="yellowgreen" cx="786.64" cy="-279.93" rx="77.07" ry="35.89"/>
<text text-anchor="middle" x="786.64" y="-288" font-family="Times,serif" font-size="14.00">[TYPE] @ None</text>
<text text-anchor="middle" x="786.64" y="-273.75" font-family="Times,serif" font-size="14.00">ANY</text>
<text text-anchor="middle" x="786.64" y="-259.5" font-family="Times,serif" font-size="14.00">None</text>
</g>
<!-- 171798691841 -->
<g id="node9" class="node">
<title>171798691841</title>
<ellipse fill="none" stroke="goldenrod" cx="786.64" cy="-401.95" rx="90.86" ry="35.89"/>
<text text-anchor="middle" x="786.64" y="-410.02" font-family="Times,serif" font-size="14.00">[TYPE_DECL] @ 1</text>
<text text-anchor="middle" x="786.64" y="-395.77" font-family="Times,serif" font-size="14.00">:&lt;module&gt;</text>
<text text-anchor="middle" x="786.64" y="-381.52" font-family="Times,serif" font-size="14.00">&lt;empty&gt;</text>
</g>
<!-- 171798691841&#45;&gt;163208757248 -->
<g id="edge14" class="edge">
<title>171798691841&#45;&gt;163208757248</title>
<path fill="none" stroke="black" d="M786.64,-365.59C786.64,-353.62 786.64,-340.08 786.64,-327.38"/>
<polygon fill="black" stroke="black" points="790.14,-327.55 786.64,-317.55 783.14,-327.55 790.14,-327.55"/>
<text text-anchor="middle" x="840.64" y="-334.76" font-family="Times,serif" font-size="14.00">INHERITS_FROM</text>
</g>
</g>
</svg>
