<?xml version="1.0" encoding="UTF-8" standalone="no"?>
<!DOCTYPE svg PUBLIC "-//W3C//DTD SVG 1.1//EN"
 "http://www.w3.org/Graphics/SVG/1.1/DTD/svg11.dtd">
<!-- Generated by graphviz version 12.2.1 (20241206.2353)
 -->
<!-- Pages: 1 -->
<svg width="811pt" height="446pt"
 viewBox="0.00 0.00 811.33 445.84" xmlns="http://www.w3.org/2000/svg" xmlns:xlink="http://www.w3.org/1999/xlink">
<g id="graph0" class="graph" transform="scale(1 1) rotate(0) translate(4 441.84)">
<polygon fill="white" stroke="none" points="-4,4 -4,-441.84 807.33,-441.84 807.33,4 -4,4"/>
<!-- 30064771072 -->
<g id="node1" class="node">
<title>30064771072</title>
<ellipse fill="none" stroke="crimson" cx="182.33" cy="-401.95" rx="88.74" ry="35.89"/>
<text text-anchor="middle" x="182.33" y="-410.02" font-family="Times,serif" font-size="14.00">[CALL] @ 1</text>
<text text-anchor="middle" x="182.33" y="-395.77" font-family="Times,serif" font-size="14.00">&lt;operator&gt;.addition</text>
<text text-anchor="middle" x="182.33" y="-381.52" font-family="Times,serif" font-size="14.00">i + j</text>
</g>
<!-- 30064771073 -->
<g id="node2" class="node">
<title>30064771073</title>
<ellipse fill="none" stroke="crimson" cx="417.33" cy="-157.91" rx="100.94" ry="35.89"/>
<text text-anchor="middle" x="417.33" y="-165.98" font-family="Times,serif" font-size="14.00">[CALL] @ 1</text>
<text text-anchor="middle" x="417.33" y="-151.73" font-family="Times,serif" font-size="14.00">&lt;operator&gt;.assignment</text>
<text text-anchor="middle" x="417.33" y="-137.48" font-family="Times,serif" font-size="14.00">c = i + j</text>
</g>
<!-- 30064771072&#45;&gt;30064771073 -->
<g id="edge1" class="edge">
<title>30064771072&#45;&gt;30064771073</title>
<path fill="none" stroke="lightsalmon" d="M262.57,-386.18C305.12,-374.24 354.78,-353.03 385.33,-315.81 410.69,-284.93 417.66,-239.25 418.9,-205.14"/>
<polygon fill="lightsalmon" stroke="lightsalmon" points="422.39,-205.63 419.09,-195.56 415.39,-205.49 422.39,-205.63"/>
<text text-anchor="middle" x="427.72" y="-273.75" font-family="Times,serif" font-size="14.00">CFG</text>
</g>
<!-- 30064771072&#45;&gt;30064771073 -->
<g id="edge2" class="edge">
<title>30064771072&#45;&gt;30064771073</title>
<path fill="none" stroke="lightgreen" d="M262.73,-386.37C332.37,-371.81 425.05,-347.13 445.33,-315.81 466.92,-282.49 455.51,-237.24 441.32,-203.89"/>
<polygon fill="lightgreen" stroke="lightgreen" points="444.56,-202.58 437.27,-194.89 438.18,-205.45 444.56,-202.58"/>
<text text-anchor="middle" x="487.71" y="-273.75" font-family="Times,serif" font-size="14.00">DDG: i + j</text>
</g>
<!-- 68719476738 -->
<g id="node3" class="node">
<title>68719476738</title>
<ellipse fill="none" stroke="limegreen" cx="286.33" cy="-279.93" rx="90.33" ry="35.89"/>
<text text-anchor="middle" x="286.33" y="-288" font-family="Times,serif" font-size="14.00">[IDENTIFIER] @ 1</text>
<text text-anchor="middle" x="286.33" y="-273.75" font-family="Times,serif" font-size="14.00">c</text>
<text text-anchor="middle" x="286.33" y="-259.5" font-family="Times,serif" font-size="14.00">c</text>
</g>
<!-- 30064771072&#45;&gt;68719476738 -->
<g id="edge3" class="edge">
<title>30064771072&#45;&gt;68719476738</title>
<path fill="none" stroke="lightgreen" d="M211.03,-367.84C223.09,-353.92 237.26,-337.56 250.04,-322.82"/>
<polygon fill="lightgreen" stroke="lightgreen" points="252.48,-325.34 256.38,-315.49 247.19,-320.76 252.48,-325.34"/>
<text text-anchor="middle" x="267.83" y="-334.76" font-family="Times,serif" font-size="14.00">DDG: i + j</text>
</g>
<!-- 128849018880 -->
<g id="node4" class="node">
<title>128849018880</title>
<ellipse fill="none" stroke="salmon" cx="417.33" cy="-35.89" rx="123.21" ry="35.89"/>
<text text-anchor="middle" x="417.33" y="-43.96" font-family="Times,serif" font-size="14.00">[METHOD_RETURN] @ 1</text>
<text text-anchor="middle" x="417.33" y="-29.71" font-family="Times,serif" font-size="14.00">BY_SHARING</text>
<text text-anchor="middle" x="417.33" y="-15.46" font-family="Times,serif" font-size="14.00">RET</text>
</g>
<!-- 30064771073&#45;&gt;128849018880 -->
<g id="edge4" class="edge">
<title>30064771073&#45;&gt;128849018880</title>
<path fill="none" stroke="lightsalmon" d="M417.33,-121.55C417.33,-109.58 417.33,-96.03 417.33,-83.34"/>
<polygon fill="lightsalmon" stroke="lightsalmon" points="420.83,-83.51 417.33,-73.51 413.83,-83.51 420.83,-83.51"/>
<text text-anchor="middle" x="430.46" y="-90.72" font-family="Times,serif" font-size="14.00">CFG</text>
</g>
<!-- 68719476738&#45;&gt;30064771073 -->
<g id="edge9" class="edge">
<title>68719476738&#45;&gt;30064771073</title>
<path fill="none" stroke="lightgreen" d="M318.96,-245.99C330.17,-234.94 342.89,-222.67 354.83,-211.79 359.61,-207.44 364.67,-202.96 369.75,-198.55"/>
<polygon fill="lightgreen" stroke="lightgreen" points="371.84,-201.36 377.13,-192.19 367.27,-196.06 371.84,-201.36"/>
<text text-anchor="middle" x="376.58" y="-212.74" font-family="Times,serif" font-size="14.00">DDG: c</text>
</g>
<!-- 68719476736 -->
<g id="node5" class="node">
<title>68719476736</title>
<ellipse fill="none" stroke="limegreen" cx="208.33" cy="-157.91" rx="90.33" ry="35.89"/>
<text text-anchor="middle" x="208.33" y="-165.98" font-family="Times,serif" font-size="14.00">[IDENTIFIER] @ 1</text>
<text text-anchor="middle" x="208.33" y="-151.73" font-family="Times,serif" font-size="14.00">i</text>
<text text-anchor="middle" x="208.33" y="-137.48" font-family="Times,serif" font-size="14.00">i</text>
</g>
<!-- 68719476738&#45;&gt;68719476736 -->
<g id="edge10" class="edge">
<title>68719476738&#45;&gt;68719476736</title>
<path fill="none" stroke="lightsalmon" d="M264.19,-244.86C255.63,-231.68 245.72,-216.44 236.65,-202.48"/>
<polygon fill="lightsalmon" stroke="lightsalmon" points="239.74,-200.81 231.36,-194.33 233.87,-204.63 239.74,-200.81"/>
<text text-anchor="middle" x="262.8" y="-212.74" font-family="Times,serif" font-size="14.00">CFG</text>
</g>
<!-- 68719476736&#45;&gt;30064771072 -->
<g id="edge5" class="edge">
<title>68719476736&#45;&gt;30064771072</title>
<path fill="none" stroke="lightgreen" d="M176.79,-191.71C164.71,-206.49 152.34,-224.9 146.08,-244.04 133.96,-281.17 145.86,-324.51 159.18,-356.22"/>
<polygon fill="lightgreen" stroke="lightgreen" points="155.87,-357.38 163.11,-365.11 162.27,-354.55 155.87,-357.38"/>
<text text-anchor="middle" x="166.71" y="-273.75" font-family="Times,serif" font-size="14.00">DDG: i</text>
</g>
<!-- 68719476737 -->
<g id="node6" class="node">
<title>68719476737</title>
<ellipse fill="none" stroke="limegreen" cx="90.33" cy="-35.89" rx="90.33" ry="35.89"/>
<text text-anchor="middle" x="90.33" y="-43.96" font-family="Times,serif" font-size="14.00">[IDENTIFIER] @ 1</text>
<text text-anchor="middle" x="90.33" y="-29.71" font-family="Times,serif" font-size="14.00">j</text>
<text text-anchor="middle" x="90.33" y="-15.46" font-family="Times,serif" font-size="14.00">j</text>
</g>
<!-- 68719476736&#45;&gt;68719476737 -->
<g id="edge6" class="edge">
<title>68719476736&#45;&gt;68719476737</title>
<path fill="none" stroke="lightsalmon" d="M176.09,-124.11C162.04,-109.82 145.42,-92.92 130.58,-77.82"/>
<polygon fill="lightsalmon" stroke="lightsalmon" points="133.11,-75.4 123.6,-70.72 128.11,-80.31 133.11,-75.4"/>
<text text-anchor="middle" x="166" y="-90.72" font-family="Times,serif" font-size="14.00">CFG</text>
</g>
<!-- 68719476737&#45;&gt;30064771072 -->
<g id="edge7" class="edge">
<title>68719476737&#45;&gt;30064771072</title>
<path fill="none" stroke="lightsalmon" d="M93.51,-71.94C96.66,-103.84 102.06,-152.17 109.33,-193.79 118.91,-248.6 122.86,-262.09 137.33,-315.81 141.24,-330.3 140.9,-334.5 147.33,-348.06 148.79,-351.15 150.42,-354.26 152.14,-357.35"/>
<polygon fill="lightsalmon" stroke="lightsalmon" points="149.02,-358.95 157.12,-365.77 155.04,-355.38 149.02,-358.95"/>
<text text-anchor="middle" x="128.21" y="-212.74" font-family="Times,serif" font-size="14.00">CFG</text>
</g>
<!-- 68719476737&#45;&gt;30064771072 -->
<g id="edge8" class="edge">
<title>68719476737&#45;&gt;30064771072</title>
<path fill="none" stroke="lightgreen" d="M78.45,-71.88C67.19,-110.21 53.8,-173.26 67.08,-226.04 79.96,-277.19 115.24,-326.53 143.4,-359.68"/>
<polygon fill="lightgreen" stroke="lightgreen" points="140.58,-361.77 149.77,-367.03 145.87,-357.18 140.58,-361.77"/>
<text text-anchor="middle" x="87.71" y="-212.74" font-family="Times,serif" font-size="14.00">DDG: j</text>
</g>
<!-- 111669149696 -->
<g id="node7" class="node">
<title>111669149696</title>
<ellipse fill="none" stroke="firebrick" cx="507.33" cy="-401.95" rx="78.67" ry="35.89"/>
<text text-anchor="middle" x="507.33" y="-410.02" font-family="Times,serif" font-size="14.00">[METHOD] @ 1</text>
<text text-anchor="middle" x="507.33" y="-395.77" font-family="Times,serif" font-size="14.00">:&lt;module&gt;</text>
<text text-anchor="middle" x="507.33" y="-381.52" font-family="Times,serif" font-size="14.00">None</text>
</g>
<!-- 111669149696&#45;&gt;68719476738 -->
<g id="edge11" class="edge">
<title>111669149696&#45;&gt;68719476738</title>
<path fill="none" stroke="lightsalmon" d="M457.46,-373.86C425.25,-356.37 383.08,-333.47 348.67,-314.78"/>
<polygon fill="lightsalmon" stroke="lightsalmon" points="350.5,-311.8 340.05,-310.1 347.16,-317.95 350.5,-311.8"/>
<text text-anchor="middle" x="416.58" y="-334.76" font-family="Times,serif" font-size="14.00">CFG</text>
</g>
<!-- 163208757248 -->
<g id="node8" class="node">
<title>163208757248</title>
<ellipse fill="none" stroke="yellowgreen" cx="695.33" cy="-279.93" rx="77.07" ry="35.89"/>
<text text-anchor="middle" x="695.33" y="-288" font-family="Times,serif" font-size="14.00">[TYPE] @ None</text>
<text text-anchor="middle" x="695.33" y="-273.75" font-family="Times,serif" font-size="14.00">ANY</text>
<text text-anchor="middle" x="695.33" y="-259.5" font-family="Times,serif" font-size="14.00">None</text>
</g>
<!-- 171798691841 -->
<g id="node9" class="node">
<title>171798691841</title>
<ellipse fill="none" stroke="goldenrod" cx="695.33" cy="-401.95" rx="90.86" ry="35.89"/>
<text text-anchor="middle" x="695.33" y="-410.02" font-family="Times,serif" font-size="14.00">[TYPE_DECL] @ 1</text>
<text text-anchor="middle" x="695.33" y="-395.77" font-family="Times,serif" font-size="14.00">:&lt;module&gt;</text>
<text text-anchor="middle" x="695.33" y="-381.52" font-family="Times,serif" font-size="14.00">&lt;empty&gt;</text>
</g>
<!-- 171798691841&#45;&gt;163208757248 -->
<g id="edge12" class="edge">
<title>171798691841&#45;&gt;163208757248</title>
<path fill="none" stroke="black" d="M695.33,-365.59C695.33,-353.62 695.33,-340.08 695.33,-327.38"/>
<polygon fill="black" stroke="black" points="698.83,-327.55 695.33,-317.55 691.83,-327.55 698.83,-327.55"/>
<text text-anchor="middle" x="749.33" y="-334.76" font-family="Times,serif" font-size="14.00">INHERITS_FROM</text>
</g>
</g>
</svg>
