<?xml version="1.0" encoding="UTF-8" standalone="no"?>
<!DOCTYPE svg PUBLIC "-//W3C//DTD SVG 1.1//EN"
 "http://www.w3.org/Graphics/SVG/1.1/DTD/svg11.dtd">
<!-- Generated by graphviz version 12.2.1 (20241206.2353)
 -->
<!-- Pages: 1 -->
<svg width="1242pt" height="1748pt"
 viewBox="0.00 0.00 1242.43 1747.76" xmlns="http://www.w3.org/2000/svg" xmlns:xlink="http://www.w3.org/1999/xlink">
<g id="graph0" class="graph" transform="scale(1 1) rotate(0) translate(4 1743.76)">
<polygon fill="white" stroke="none" points="-4,4 -4,-1743.76 1238.43,-1743.76 1238.43,4 -4,4"/>
<!-- 30064771072 -->
<g id="node1" class="node">
<title>30064771072</title>
<ellipse fill="none" stroke="crimson" cx="407.21" cy="-1337.82" rx="100.94" ry="35.89"/>
<text text-anchor="middle" x="407.21" y="-1345.89" font-family="Times,serif" font-size="14.00">[CALL] @ 5</text>
<text text-anchor="middle" x="407.21" y="-1331.64" font-family="Times,serif" font-size="14.00">&lt;operator&gt;.assignment</text>
<text text-anchor="middle" x="407.21" y="-1317.39" font-family="Times,serif" font-size="14.00">x = 2</text>
</g>
<!-- 68719476737 -->
<g id="node2" class="node">
<title>68719476737</title>
<ellipse fill="none" stroke="limegreen" cx="407.21" cy="-1215.79" rx="90.33" ry="35.89"/>
<text text-anchor="middle" x="407.21" y="-1223.87" font-family="Times,serif" font-size="14.00">[IDENTIFIER] @ 6</text>
<text text-anchor="middle" x="407.21" y="-1209.62" font-family="Times,serif" font-size="14.00">x</text>
<text text-anchor="middle" x="407.21" y="-1195.37" font-family="Times,serif" font-size="14.00">x</text>
</g>
<!-- 30064771072&#45;&gt;68719476737 -->
<g id="edge1" class="edge">
<title>30064771072&#45;&gt;68719476737</title>
<path fill="none" stroke="lightsalmon" d="M407.21,-1301.45C407.21,-1289.49 407.21,-1275.94 407.21,-1263.25"/>
<polygon fill="lightsalmon" stroke="lightsalmon" points="410.71,-1263.42 407.21,-1253.42 403.71,-1263.42 410.71,-1263.42"/>
<text text-anchor="middle" x="420.34" y="-1270.63" font-family="Times,serif" font-size="14.00">CFG</text>
</g>
<!-- 30064771073 -->
<g id="node3" class="node">
<title>30064771073</title>
<ellipse fill="none" stroke="crimson" cx="462.21" cy="-991.9" rx="100.94" ry="35.89"/>
<text text-anchor="middle" x="462.21" y="-999.98" font-family="Times,serif" font-size="14.00">[CALL] @ 6</text>
<text text-anchor="middle" x="462.21" y="-985.73" font-family="Times,serif" font-size="14.00">&lt;operator&gt;.assignment</text>
<text text-anchor="middle" x="462.21" y="-971.48" font-family="Times,serif" font-size="14.00">x = 0</text>
</g>
<!-- 68719476737&#45;&gt;30064771073 -->
<g id="edge11" class="edge">
<title>68719476737&#45;&gt;30064771073</title>
<path fill="none" stroke="lightgreen" d="M398.49,-1179.6C393.11,-1151.42 389.11,-1111.26 399.96,-1078.04 404.95,-1062.77 413.83,-1047.97 423.34,-1035.11"/>
<polygon fill="lightgreen" stroke="lightgreen" points="426.04,-1037.35 429.41,-1027.31 420.51,-1033.06 426.04,-1037.35"/>
<text text-anchor="middle" x="422.09" y="-1097.67" font-family="Times,serif" font-size="14.00">DDG: x</text>
</g>
<!-- 68719476738 -->
<g id="node4" class="node">
<title>68719476738</title>
<ellipse fill="none" stroke="limegreen" cx="348.21" cy="-869.88" rx="90.33" ry="35.89"/>
<text text-anchor="middle" x="348.21" y="-877.96" font-family="Times,serif" font-size="14.00">[IDENTIFIER] @ 7</text>
<text text-anchor="middle" x="348.21" y="-863.71" font-family="Times,serif" font-size="14.00">x</text>
<text text-anchor="middle" x="348.21" y="-849.46" font-family="Times,serif" font-size="14.00">x</text>
</g>
<!-- 68719476737&#45;&gt;68719476738 -->
<g id="edge12" class="edge">
<title>68719476737&#45;&gt;68719476738</title>
<path fill="none" stroke="lightgreen" d="M395.86,-1179.84C393.95,-1173.86 392.01,-1167.71 390.21,-1161.91 371.91,-1102.72 360.29,-1089.22 352.21,-1027.79 347.38,-991.02 346.56,-948.99 346.84,-917.69"/>
<polygon fill="lightgreen" stroke="lightgreen" points="350.34,-917.82 346.98,-907.77 343.34,-917.72 350.34,-917.82"/>
<text text-anchor="middle" x="379.63" y="-1046.74" font-family="Times,serif" font-size="14.00">DDG: x</text>
</g>
<!-- 90194313217 -->
<g id="node13" class="node">
<title>90194313217</title>
<ellipse fill="none" stroke="darkgreen" cx="531.21" cy="-1103.85" rx="77.6" ry="25.81"/>
<text text-anchor="middle" x="531.21" y="-1104.8" font-family="Times,serif" font-size="14.00">[LITERAL] @ 6</text>
<text text-anchor="middle" x="531.21" y="-1090.55" font-family="Times,serif" font-size="14.00">0</text>
</g>
<!-- 68719476737&#45;&gt;90194313217 -->
<g id="edge13" class="edge">
<title>68719476737&#45;&gt;90194313217</title>
<path fill="none" stroke="lightsalmon" d="M460.48,-1186.39C471.61,-1179.2 482.8,-1170.93 492.21,-1161.91 499.17,-1155.24 505.61,-1147.14 511.16,-1139.16"/>
<polygon fill="lightsalmon" stroke="lightsalmon" points="514.05,-1141.13 516.63,-1130.85 508.21,-1137.28 514.05,-1141.13"/>
<text text-anchor="middle" x="517.91" y="-1148.61" font-family="Times,serif" font-size="14.00">CFG</text>
</g>
<!-- 30064771073&#45;&gt;68719476738 -->
<g id="edge2" class="edge">
<title>30064771073&#45;&gt;68719476738</title>
<path fill="none" stroke="lightsalmon" d="M430.46,-957.47C417.01,-943.31 401.2,-926.67 387.06,-911.78"/>
<polygon fill="lightsalmon" stroke="lightsalmon" points="389.87,-909.66 380.45,-904.82 384.8,-914.48 389.87,-909.66"/>
<text text-anchor="middle" x="421.76" y="-924.72" font-family="Times,serif" font-size="14.00">CFG</text>
</g>
<!-- 30064771074 -->
<g id="node5" class="node">
<title>30064771074</title>
<ellipse fill="none" stroke="crimson" cx="282.21" cy="-645.99" rx="91.92" ry="35.89"/>
<text text-anchor="middle" x="282.21" y="-654.07" font-family="Times,serif" font-size="14.00">[CALL] @ 7</text>
<text text-anchor="middle" x="282.21" y="-639.82" font-family="Times,serif" font-size="14.00">&lt;operator&gt;.lessThan</text>
<text text-anchor="middle" x="282.21" y="-625.57" font-family="Times,serif" font-size="14.00">x &lt; 10</text>
</g>
<!-- 68719476738&#45;&gt;30064771074 -->
<g id="edge14" class="edge">
<title>68719476738&#45;&gt;30064771074</title>
<path fill="none" stroke="lightgreen" d="M347.03,-833.62C344.8,-798.51 338.41,-743.69 320.21,-699.88 318.89,-696.69 317.34,-693.51 315.64,-690.39"/>
<polygon fill="lightgreen" stroke="lightgreen" points="318.71,-688.7 310.56,-681.93 312.71,-692.3 318.71,-688.7"/>
<text text-anchor="middle" x="363.76" y="-751.76" font-family="Times,serif" font-size="14.00">DDG: x</text>
</g>
<!-- 68719476741 -->
<g id="node7" class="node">
<title>68719476741</title>
<ellipse fill="none" stroke="limegreen" cx="130.21" cy="-523.97" rx="95.11" ry="35.89"/>
<text text-anchor="middle" x="130.21" y="-532.05" font-family="Times,serif" font-size="14.00">[IDENTIFIER] @ 11</text>
<text text-anchor="middle" x="130.21" y="-517.8" font-family="Times,serif" font-size="14.00">x</text>
<text text-anchor="middle" x="130.21" y="-503.55" font-family="Times,serif" font-size="14.00">x</text>
</g>
<!-- 68719476738&#45;&gt;68719476741 -->
<g id="edge16" class="edge">
<title>68719476738&#45;&gt;68719476741</title>
<path fill="none" stroke="lightgreen" d="M265.48,-855.08C223.03,-843.48 174.6,-822.28 147.21,-783.75 102.77,-721.22 109.96,-627.3 119.73,-571.46"/>
<polygon fill="lightgreen" stroke="lightgreen" points="123.17,-572.11 121.56,-561.64 116.29,-570.83 123.17,-572.11"/>
<text text-anchor="middle" x="140.21" y="-700.83" font-family="Times,serif" font-size="14.00">DDG: x</text>
</g>
<!-- 68719476740 -->
<g id="node14" class="node">
<title>68719476740</title>
<ellipse fill="none" stroke="limegreen" cx="477.21" cy="-401.95" rx="90.33" ry="35.89"/>
<text text-anchor="middle" x="477.21" y="-410.02" font-family="Times,serif" font-size="14.00">[IDENTIFIER] @ 9</text>
<text text-anchor="middle" x="477.21" y="-395.77" font-family="Times,serif" font-size="14.00">x</text>
<text text-anchor="middle" x="477.21" y="-381.52" font-family="Times,serif" font-size="14.00">x</text>
</g>
<!-- 68719476738&#45;&gt;68719476740 -->
<g id="edge15" class="edge">
<title>68719476738&#45;&gt;68719476740</title>
<path fill="none" stroke="lightgreen" d="M411.03,-843.87C444.65,-825.92 479.21,-797.98 479.21,-758.94 479.21,-758.94 479.21,-758.94 479.21,-522.97 479.21,-498.77 478.8,-471.83 478.35,-449.61"/>
<polygon fill="lightgreen" stroke="lightgreen" points="481.85,-449.57 478.14,-439.65 474.85,-449.72 481.85,-449.57"/>
<text text-anchor="middle" x="501.34" y="-639.82" font-family="Times,serif" font-size="14.00">DDG: x</text>
</g>
<!-- 90194313218 -->
<g id="node15" class="node">
<title>90194313218</title>
<ellipse fill="none" stroke="darkgreen" cx="234.21" cy="-757.94" rx="77.6" ry="25.81"/>
<text text-anchor="middle" x="234.21" y="-758.89" font-family="Times,serif" font-size="14.00">[LITERAL] @ 7</text>
<text text-anchor="middle" x="234.21" y="-744.64" font-family="Times,serif" font-size="14.00">10</text>
</g>
<!-- 68719476738&#45;&gt;90194313218 -->
<g id="edge17" class="edge">
<title>68719476738&#45;&gt;90194313218</title>
<path fill="none" stroke="lightsalmon" d="M273.81,-849.16C258.07,-841.42 243.38,-830.73 233.96,-816 230.04,-809.86 228.39,-802.55 228.04,-795.23"/>
<polygon fill="lightsalmon" stroke="lightsalmon" points="231.53,-795.53 228.35,-785.43 224.53,-795.31 231.53,-795.53"/>
<text text-anchor="middle" x="247.09" y="-802.7" font-family="Times,serif" font-size="14.00">CFG</text>
</g>
<!-- 68719476739 -->
<g id="node6" class="node">
<title>68719476739</title>
<ellipse fill="none" stroke="limegreen" cx="358.21" cy="-523.97" rx="90.33" ry="35.89"/>
<text text-anchor="middle" x="358.21" y="-532.05" font-family="Times,serif" font-size="14.00">[IDENTIFIER] @ 9</text>
<text text-anchor="middle" x="358.21" y="-517.8" font-family="Times,serif" font-size="14.00">x</text>
<text text-anchor="middle" x="358.21" y="-503.55" font-family="Times,serif" font-size="14.00">x</text>
</g>
<!-- 30064771074&#45;&gt;68719476739 -->
<g id="edge3" class="edge">
<title>30064771074&#45;&gt;68719476739</title>
<path fill="none" stroke="lightsalmon" d="M303.79,-610.92C312.13,-597.74 321.78,-582.5 330.62,-568.54"/>
<polygon fill="lightsalmon" stroke="lightsalmon" points="333.38,-570.73 335.77,-560.41 327.47,-566.98 333.38,-570.73"/>
<text text-anchor="middle" x="335.62" y="-578.81" font-family="Times,serif" font-size="14.00">CFG</text>
</g>
<!-- 30064771074&#45;&gt;68719476741 -->
<g id="edge4" class="edge">
<title>30064771074&#45;&gt;68719476741</title>
<path fill="none" stroke="lightsalmon" d="M242.28,-613.46C223.05,-598.27 199.8,-579.92 179.48,-563.87"/>
<polygon fill="lightsalmon" stroke="lightsalmon" points="181.88,-561.31 171.86,-557.86 177.54,-566.8 181.88,-561.31"/>
<text text-anchor="middle" x="223.9" y="-578.81" font-family="Times,serif" font-size="14.00">CFG</text>
</g>
<!-- 68719476739&#45;&gt;68719476738 -->
<g id="edge19" class="edge">
<title>68719476739&#45;&gt;68719476738</title>
<path fill="none" stroke="lightgreen" d="M370.15,-559.7C385.64,-609.76 408.62,-704.83 390.21,-783.75 386.96,-797.68 381.09,-811.95 374.74,-824.73"/>
<polygon fill="lightgreen" stroke="lightgreen" points="371.81,-822.79 370.29,-833.28 378.02,-826.02 371.81,-822.79"/>
<text text-anchor="middle" x="419.12" y="-700.83" font-family="Times,serif" font-size="14.00">DDG: x</text>
</g>
<!-- 30064771075 -->
<g id="node8" class="node">
<title>30064771075</title>
<ellipse fill="none" stroke="crimson" cx="387.21" cy="-35.89" rx="100.94" ry="35.89"/>
<text text-anchor="middle" x="387.21" y="-43.96" font-family="Times,serif" font-size="14.00">[CALL] @ 9</text>
<text text-anchor="middle" x="387.21" y="-29.71" font-family="Times,serif" font-size="14.00">&lt;operator&gt;.assignment</text>
<text text-anchor="middle" x="387.21" y="-15.46" font-family="Times,serif" font-size="14.00">x = x + 1</text>
</g>
<!-- 68719476739&#45;&gt;30064771075 -->
<g id="edge18" class="edge">
<title>68719476739&#45;&gt;30064771075</title>
<path fill="none" stroke="lightgreen" d="M325.37,-490.11C306.38,-467.57 286.21,-435.87 286.21,-402.95 286.21,-402.95 286.21,-402.95 286.21,-156.91 286.21,-124.53 308,-96.33 331.34,-75.42"/>
<polygon fill="lightgreen" stroke="lightgreen" points="333.48,-78.19 338.82,-69.04 328.94,-72.87 333.48,-78.19"/>
<text text-anchor="middle" x="308.34" y="-273.75" font-family="Times,serif" font-size="14.00">DDG: x</text>
</g>
<!-- 68719476739&#45;&gt;68719476740 -->
<g id="edge20" class="edge">
<title>68719476739&#45;&gt;68719476740</title>
<path fill="none" stroke="lightsalmon" d="M390.73,-490.17C405.03,-475.75 421.97,-458.67 437.04,-443.46"/>
<polygon fill="lightsalmon" stroke="lightsalmon" points="439.11,-446.35 443.67,-436.78 434.14,-441.42 439.11,-446.35"/>
<text text-anchor="middle" x="434.41" y="-456.79" font-family="Times,serif" font-size="14.00">CFG</text>
</g>
<!-- 146028888064 -->
<g id="node17" class="node">
<title>146028888064</title>
<ellipse fill="none" stroke="lightpink" cx="123.21" cy="-401.95" rx="81.32" ry="25.81"/>
<text text-anchor="middle" x="123.21" y="-402.9" font-family="Times,serif" font-size="14.00">[RETURN] @ 11</text>
<text text-anchor="middle" x="123.21" y="-388.65" font-family="Times,serif" font-size="14.00">return x;</text>
</g>
<!-- 68719476741&#45;&gt;146028888064 -->
<g id="edge23" class="edge">
<title>68719476741&#45;&gt;146028888064</title>
<path fill="none" stroke="lightsalmon" d="M120.16,-487.92C118.83,-482.01 117.68,-475.91 116.96,-470.09 115.74,-460.15 116.03,-449.36 116.96,-439.39"/>
<polygon fill="lightsalmon" stroke="lightsalmon" points="120.41,-440.02 118.12,-429.68 113.46,-439.19 120.41,-440.02"/>
<text text-anchor="middle" x="130.09" y="-456.79" font-family="Times,serif" font-size="14.00">CFG</text>
</g>
<!-- 68719476741&#45;&gt;146028888064 -->
<g id="edge24" class="edge">
<title>68719476741&#45;&gt;146028888064</title>
<path fill="none" stroke="lightgreen" d="M141.95,-488.15C144.1,-477.76 145.13,-466.35 143.21,-455.84 142.17,-450.13 140.54,-444.24 138.66,-438.55"/>
<polygon fill="lightgreen" stroke="lightgreen" points="142.03,-437.59 135.31,-429.39 135.45,-439.99 142.03,-437.59"/>
<text text-anchor="middle" x="166.35" y="-456.79" font-family="Times,serif" font-size="14.00">DDG: x</text>
</g>
<!-- 30064771075&#45;&gt;68719476738 -->
<g id="edge5" class="edge">
<title>30064771075&#45;&gt;68719476738</title>
<path fill="none" stroke="lightsalmon" d="M486.64,-42.72C561.84,-53.15 652.21,-81.4 652.21,-156.91 652.21,-758.94 652.21,-758.94 652.21,-758.94 652.21,-804.15 531.81,-836 442.55,-853.4"/>
<polygon fill="lightsalmon" stroke="lightsalmon" points="441.93,-849.95 432.77,-855.27 443.25,-856.83 441.93,-849.95"/>
<text text-anchor="middle" x="665.34" y="-456.79" font-family="Times,serif" font-size="14.00">CFG</text>
</g>
<!-- 30064771076 -->
<g id="node9" class="node">
<title>30064771076</title>
<ellipse fill="none" stroke="crimson" cx="431.21" cy="-157.91" rx="88.74" ry="35.89"/>
<text text-anchor="middle" x="431.21" y="-165.98" font-family="Times,serif" font-size="14.00">[CALL] @ 9</text>
<text text-anchor="middle" x="431.21" y="-151.73" font-family="Times,serif" font-size="14.00">&lt;operator&gt;.addition</text>
<text text-anchor="middle" x="431.21" y="-137.48" font-family="Times,serif" font-size="14.00">x + 1</text>
</g>
<!-- 30064771076&#45;&gt;68719476739 -->
<g id="edge8" class="edge">
<title>30064771076&#45;&gt;68719476739</title>
<path fill="none" stroke="lightgreen" d="M411.24,-193.34C392.6,-227.64 366.09,-282.45 355.46,-333.81 345.57,-381.61 348.09,-437.67 351.95,-476.28"/>
<polygon fill="lightgreen" stroke="lightgreen" points="348.46,-476.6 353.01,-486.17 355.42,-475.86 348.46,-476.6"/>
<text text-anchor="middle" x="388.84" y="-334.76" font-family="Times,serif" font-size="14.00">DDG: x + 1</text>
</g>
<!-- 30064771076&#45;&gt;30064771075 -->
<g id="edge6" class="edge">
<title>30064771076&#45;&gt;30064771075</title>
<path fill="none" stroke="lightsalmon" d="M421.02,-121.82C417.79,-111.43 414.05,-100.07 410.21,-89.77 409.28,-87.28 408.3,-84.73 407.28,-82.17"/>
<polygon fill="lightsalmon" stroke="lightsalmon" points="410.58,-80.98 403.54,-73.06 404.1,-83.64 410.58,-80.98"/>
<text text-anchor="middle" x="427.85" y="-90.72" font-family="Times,serif" font-size="14.00">CFG</text>
</g>
<!-- 30064771076&#45;&gt;30064771075 -->
<g id="edge7" class="edge">
<title>30064771076&#45;&gt;30064771075</title>
<path fill="none" stroke="lightgreen" d="M367.88,-132.28C356.52,-124.94 346.18,-115.64 339.46,-104.02 334.53,-95.48 335.72,-86.66 340.1,-78.34"/>
<polygon fill="lightgreen" stroke="lightgreen" points="342.97,-80.34 345.67,-70.1 337.17,-76.42 342.97,-80.34"/>
<text text-anchor="middle" x="372.84" y="-90.72" font-family="Times,serif" font-size="14.00">DDG: x + 1</text>
</g>
<!-- 51539607552 -->
<g id="node10" class="node">
<title>51539607552</title>
<ellipse fill="none" stroke="black" cx="632.21" cy="-1581.86" rx="116.85" ry="25.81"/>
<text text-anchor="middle" x="632.21" y="-1582.81" font-family="Times,serif" font-size="14.00">[DEPENDENCY] @ None</text>
<text text-anchor="middle" x="632.21" y="-1568.56" font-family="Times,serif" font-size="14.00">None</text>
</g>
<!-- 68719476736 -->
<g id="node11" class="node">
<title>68719476736</title>
<ellipse fill="none" stroke="limegreen" cx="407.21" cy="-1581.86" rx="90.33" ry="35.89"/>
<text text-anchor="middle" x="407.21" y="-1589.93" font-family="Times,serif" font-size="14.00">[IDENTIFIER] @ 5</text>
<text text-anchor="middle" x="407.21" y="-1575.68" font-family="Times,serif" font-size="14.00">x</text>
<text text-anchor="middle" x="407.21" y="-1561.43" font-family="Times,serif" font-size="14.00">x</text>
</g>
<!-- 68719476736&#45;&gt;30064771072 -->
<g id="edge9" class="edge">
<title>68719476736&#45;&gt;30064771072</title>
<path fill="none" stroke="lightgreen" d="M365.74,-1549.82C349.81,-1535.35 333.43,-1516.68 324.96,-1495.72 313.01,-1466.15 313.01,-1453.53 324.96,-1423.95 331.85,-1406.91 343.96,-1391.38 356.81,-1378.4"/>
<polygon fill="lightgreen" stroke="lightgreen" points="359,-1381.15 363.78,-1371.69 354.14,-1376.11 359,-1381.15"/>
<text text-anchor="middle" x="347.09" y="-1453.66" font-family="Times,serif" font-size="14.00">DDG: x</text>
</g>
<!-- 90194313216 -->
<g id="node12" class="node">
<title>90194313216</title>
<ellipse fill="none" stroke="darkgreen" cx="456.21" cy="-1459.84" rx="77.6" ry="25.81"/>
<text text-anchor="middle" x="456.21" y="-1460.79" font-family="Times,serif" font-size="14.00">[LITERAL] @ 5</text>
<text text-anchor="middle" x="456.21" y="-1446.54" font-family="Times,serif" font-size="14.00">2</text>
</g>
<!-- 68719476736&#45;&gt;90194313216 -->
<g id="edge10" class="edge">
<title>68719476736&#45;&gt;90194313216</title>
<path fill="none" stroke="lightsalmon" d="M402.9,-1545.79C402.83,-1535.18 404.03,-1523.7 407.96,-1513.72 410.94,-1506.17 415.54,-1499.03 420.74,-1492.58"/>
<polygon fill="lightsalmon" stroke="lightsalmon" points="423.1,-1495.19 427.1,-1485.38 417.86,-1490.56 423.1,-1495.19"/>
<text text-anchor="middle" x="421.09" y="-1514.67" font-family="Times,serif" font-size="14.00">CFG</text>
</g>
<!-- 90194313216&#45;&gt;30064771072 -->
<g id="edge26" class="edge">
<title>90194313216&#45;&gt;30064771072</title>
<path fill="none" stroke="lightsalmon" d="M428.1,-1435.43C420.05,-1427.05 412.29,-1416.94 407.96,-1405.95 405.41,-1399.48 404.01,-1392.38 403.36,-1385.3"/>
<polygon fill="lightsalmon" stroke="lightsalmon" points="406.86,-1385.25 402.96,-1375.4 399.87,-1385.53 406.86,-1385.25"/>
<text text-anchor="middle" x="421.09" y="-1392.65" font-family="Times,serif" font-size="14.00">CFG</text>
</g>
<!-- 90194313216&#45;&gt;30064771072 -->
<g id="edge27" class="edge">
<title>90194313216&#45;&gt;30064771072</title>
<path fill="none" stroke="lightgreen" d="M449.07,-1433.95C445.14,-1421.15 439.92,-1405.4 434.21,-1391.7 433.12,-1389.08 431.95,-1386.41 430.73,-1383.73"/>
<polygon fill="lightgreen" stroke="lightgreen" points="433.95,-1382.35 426.51,-1374.81 427.63,-1385.35 433.95,-1382.35"/>
<text text-anchor="middle" x="461.26" y="-1392.65" font-family="Times,serif" font-size="14.00">DDG: 2</text>
</g>
<!-- 90194313216&#45;&gt;68719476736 -->
<g id="edge28" class="edge">
<title>90194313216&#45;&gt;68719476736</title>
<path fill="none" stroke="lightgreen" d="M449.07,-1485.72C445.14,-1498.52 439.92,-1514.27 434.21,-1527.97 433.06,-1530.73 431.83,-1533.55 430.54,-1536.37"/>
<polygon fill="lightgreen" stroke="lightgreen" points="427.5,-1534.61 426.37,-1545.15 433.82,-1537.62 427.5,-1534.61"/>
<text text-anchor="middle" x="461.26" y="-1514.67" font-family="Times,serif" font-size="14.00">DDG: 2</text>
</g>
<!-- 90194313217&#45;&gt;68719476737 -->
<g id="edge31" class="edge">
<title>90194313217&#45;&gt;68719476737</title>
<path fill="none" stroke="lightgreen" d="M479.85,-1123.59C467.12,-1129.89 454.21,-1137.86 443.96,-1147.66 437.27,-1154.06 431.5,-1161.94 426.65,-1170.04"/>
<polygon fill="lightgreen" stroke="lightgreen" points="423.69,-1168.16 421.91,-1178.6 429.81,-1171.55 423.69,-1168.16"/>
<text text-anchor="middle" x="466.09" y="-1148.61" font-family="Times,serif" font-size="14.00">DDG: 0</text>
</g>
<!-- 90194313217&#45;&gt;30064771073 -->
<g id="edge29" class="edge">
<title>90194313217&#45;&gt;30064771073</title>
<path fill="none" stroke="lightsalmon" d="M523.19,-1077.83C519.37,-1067.54 514.29,-1055.72 508.21,-1045.79 506.05,-1042.26 503.65,-1038.74 501.12,-1035.28"/>
<polygon fill="lightsalmon" stroke="lightsalmon" points="503.99,-1033.27 495.09,-1027.51 498.46,-1037.56 503.99,-1033.27"/>
<text text-anchor="middle" x="528.49" y="-1046.74" font-family="Times,serif" font-size="14.00">CFG</text>
</g>
<!-- 90194313217&#45;&gt;30064771073 -->
<g id="edge30" class="edge">
<title>90194313217&#45;&gt;30064771073</title>
<path fill="none" stroke="lightgreen" d="M483.08,-1083.28C473.84,-1077.24 465.36,-1069.59 459.96,-1060.04 456.42,-1053.78 454.72,-1046.64 454.17,-1039.4"/>
<polygon fill="lightgreen" stroke="lightgreen" points="457.67,-1039.58 454.17,-1029.58 450.67,-1039.58 457.67,-1039.58"/>
<text text-anchor="middle" x="482.09" y="-1046.74" font-family="Times,serif" font-size="14.00">DDG: 0</text>
</g>
<!-- 68719476740&#45;&gt;30064771076 -->
<g id="edge21" class="edge">
<title>68719476740&#45;&gt;30064771076</title>
<path fill="none" stroke="lightgreen" d="M450.98,-367.19C434.86,-346.09 416.92,-321.82 414.96,-315.81 403.14,-279.6 408.96,-236.42 416.74,-204.53"/>
<polygon fill="lightgreen" stroke="lightgreen" points="420.04,-205.77 419.17,-195.21 413.26,-204.01 420.04,-205.77"/>
<text text-anchor="middle" x="437.09" y="-273.75" font-family="Times,serif" font-size="14.00">DDG: x</text>
</g>
<!-- 90194313219 -->
<g id="node16" class="node">
<title>90194313219</title>
<ellipse fill="none" stroke="darkgreen" cx="546.21" cy="-279.93" rx="77.6" ry="25.81"/>
<text text-anchor="middle" x="546.21" y="-280.88" font-family="Times,serif" font-size="14.00">[LITERAL] @ 9</text>
<text text-anchor="middle" x="546.21" y="-266.63" font-family="Times,serif" font-size="14.00">1</text>
</g>
<!-- 68719476740&#45;&gt;90194313219 -->
<g id="edge22" class="edge">
<title>68719476740&#45;&gt;90194313219</title>
<path fill="none" stroke="lightsalmon" d="M496.99,-366.56C506.22,-350.49 517.19,-331.42 526.42,-315.35"/>
<polygon fill="lightsalmon" stroke="lightsalmon" points="529.21,-317.52 531.16,-307.1 523.15,-314.03 529.21,-317.52"/>
<text text-anchor="middle" x="526.91" y="-334.76" font-family="Times,serif" font-size="14.00">CFG</text>
</g>
<!-- 90194313218&#45;&gt;68719476738 -->
<g id="edge34" class="edge">
<title>90194313218&#45;&gt;68719476738</title>
<path fill="none" stroke="lightgreen" d="M253.57,-783.39C262.24,-793.81 272.83,-805.89 283.21,-816 288.14,-820.79 293.46,-825.62 298.86,-830.3"/>
<polygon fill="lightgreen" stroke="lightgreen" points="296.33,-832.74 306.22,-836.54 300.86,-827.4 296.33,-832.74"/>
<text text-anchor="middle" x="308.71" y="-802.7" font-family="Times,serif" font-size="14.00">DDG: 10</text>
</g>
<!-- 90194313218&#45;&gt;30064771074 -->
<g id="edge32" class="edge">
<title>90194313218&#45;&gt;30064771074</title>
<path fill="none" stroke="lightsalmon" d="M230.18,-731.78C229.54,-721.57 230.1,-709.85 233.96,-699.88 235.47,-696 237.4,-692.23 239.63,-688.61"/>
<polygon fill="lightsalmon" stroke="lightsalmon" points="242.35,-690.83 245.25,-680.63 236.63,-686.8 242.35,-690.83"/>
<text text-anchor="middle" x="247.09" y="-700.83" font-family="Times,serif" font-size="14.00">CFG</text>
</g>
<!-- 90194313218&#45;&gt;30064771074 -->
<g id="edge33" class="edge">
<title>90194313218&#45;&gt;30064771074</title>
<path fill="none" stroke="lightgreen" d="M250.33,-732.57C253.86,-726.67 257.38,-720.29 260.21,-714.13 263.31,-707.39 266.17,-700.1 268.74,-692.88"/>
<polygon fill="lightgreen" stroke="lightgreen" points="272.02,-694.1 271.91,-683.51 265.39,-691.86 272.02,-694.1"/>
<text text-anchor="middle" x="290.96" y="-700.83" font-family="Times,serif" font-size="14.00">DDG: 10</text>
</g>
<!-- 90194313219&#45;&gt;30064771076 -->
<g id="edge35" class="edge">
<title>90194313219&#45;&gt;30064771076</title>
<path fill="none" stroke="lightsalmon" d="M507.34,-257.3C494.13,-248.72 479.94,-238.03 468.96,-226.04 462.87,-219.39 457.36,-211.57 452.56,-203.67"/>
<polygon fill="lightsalmon" stroke="lightsalmon" points="455.61,-201.96 447.61,-195.02 449.54,-205.44 455.61,-201.96"/>
<text text-anchor="middle" x="482.09" y="-212.74" font-family="Times,serif" font-size="14.00">CFG</text>
</g>
<!-- 90194313219&#45;&gt;30064771076 -->
<g id="edge36" class="edge">
<title>90194313219&#45;&gt;30064771076</title>
<path fill="none" stroke="lightgreen" d="M529.54,-254.23C520.14,-241.05 507.78,-224.89 495.21,-211.79 490.5,-206.88 485.34,-201.98 480.07,-197.25"/>
<polygon fill="lightgreen" stroke="lightgreen" points="482.72,-194.92 472.88,-190.99 478.12,-200.19 482.72,-194.92"/>
<text text-anchor="middle" x="529.63" y="-212.74" font-family="Times,serif" font-size="14.00">DDG: 1</text>
</g>
<!-- 128849018880 -->
<g id="node25" class="node">
<title>128849018880</title>
<ellipse fill="none" stroke="salmon" cx="123.21" cy="-279.93" rx="123.21" ry="35.89"/>
<text text-anchor="middle" x="123.21" y="-288" font-family="Times,serif" font-size="14.00">[METHOD_RETURN] @ 3</text>
<text text-anchor="middle" x="123.21" y="-273.75" font-family="Times,serif" font-size="14.00">BY_VALUE</text>
<text text-anchor="middle" x="123.21" y="-259.5" font-family="Times,serif" font-size="14.00">RET</text>
</g>
<!-- 146028888064&#45;&gt;128849018880 -->
<g id="edge41" class="edge">
<title>146028888064&#45;&gt;128849018880</title>
<path fill="none" stroke="lightsalmon" d="M123.21,-375.79C123.21,-361.72 123.21,-343.73 123.21,-327.21"/>
<polygon fill="lightsalmon" stroke="lightsalmon" points="126.71,-327.58 123.21,-317.58 119.71,-327.58 126.71,-327.58"/>
<text text-anchor="middle" x="136.34" y="-334.76" font-family="Times,serif" font-size="14.00">CFG</text>
</g>
<!-- 73014444032 -->
<g id="node18" class="node">
<title>73014444032</title>
<ellipse fill="none" stroke="chartreuse" cx="632.21" cy="-1703.88" rx="89.27" ry="25.81"/>
<text text-anchor="middle" x="632.21" y="-1704.83" font-family="Times,serif" font-size="14.00">[IMPORT] @ None</text>
<text text-anchor="middle" x="632.21" y="-1690.58" font-family="Times,serif" font-size="14.00">None</text>
</g>
<!-- 73014444032&#45;&gt;51539607552 -->
<g id="edge25" class="edge">
<title>73014444032&#45;&gt;51539607552</title>
<path fill="none" stroke="black" d="M632.21,-1677.72C632.21,-1660.84 632.21,-1638.32 632.21,-1619.46"/>
<polygon fill="black" stroke="black" points="635.71,-1619.5 632.21,-1609.5 628.71,-1619.5 635.71,-1619.5"/>
<text text-anchor="middle" x="661.84" y="-1636.69" font-family="Times,serif" font-size="14.00">IMPORTS</text>
</g>
<!-- 111669149696 -->
<g id="node19" class="node">
<title>111669149696</title>
<ellipse fill="none" stroke="firebrick" cx="407.21" cy="-1703.88" rx="78.67" ry="35.89"/>
<text text-anchor="middle" x="407.21" y="-1711.95" font-family="Times,serif" font-size="14.00">[METHOD] @ 3</text>
<text text-anchor="middle" x="407.21" y="-1697.7" font-family="Times,serif" font-size="14.00">main:int()</text>
<text text-anchor="middle" x="407.21" y="-1683.45" font-family="Times,serif" font-size="14.00">None</text>
</g>
<!-- 111669149696&#45;&gt;68719476736 -->
<g id="edge37" class="edge">
<title>111669149696&#45;&gt;68719476736</title>
<path fill="none" stroke="lightsalmon" d="M407.21,-1667.52C407.21,-1655.55 407.21,-1642.01 407.21,-1629.31"/>
<polygon fill="lightsalmon" stroke="lightsalmon" points="410.71,-1629.48 407.21,-1619.48 403.71,-1629.48 410.71,-1629.48"/>
<text text-anchor="middle" x="420.34" y="-1636.69" font-family="Times,serif" font-size="14.00">CFG</text>
</g>
<!-- 111669149697 -->
<g id="node20" class="node">
<title>111669149697</title>
<ellipse fill="none" stroke="firebrick" cx="868.21" cy="-1703.88" rx="103.06" ry="35.89"/>
<text text-anchor="middle" x="868.21" y="-1711.95" font-family="Times,serif" font-size="14.00">[METHOD] @ 1</text>
<text text-anchor="middle" x="868.21" y="-1697.7" font-family="Times,serif" font-size="14.00">data_flow.cpp:&lt;global&gt;</text>
<text text-anchor="middle" x="868.21" y="-1683.45" font-family="Times,serif" font-size="14.00">None</text>
</g>
<!-- 124554051584 -->
<g id="node21" class="node">
<title>124554051584</title>
<ellipse fill="none" stroke="orangered" cx="868.21" cy="-1581.86" rx="101.47" ry="35.89"/>
<text text-anchor="middle" x="868.21" y="-1589.93" font-family="Times,serif" font-size="14.00">[METHOD_REF] @ 3</text>
<text text-anchor="middle" x="868.21" y="-1575.68" font-family="Times,serif" font-size="14.00">main:int()</text>
<text text-anchor="middle" x="868.21" y="-1561.43" font-family="Times,serif" font-size="14.00">main</text>
</g>
<!-- 111669149697&#45;&gt;124554051584 -->
<g id="edge38" class="edge">
<title>111669149697&#45;&gt;124554051584</title>
<path fill="none" stroke="lightsalmon" d="M868.21,-1667.52C868.21,-1655.55 868.21,-1642.01 868.21,-1629.31"/>
<polygon fill="lightsalmon" stroke="lightsalmon" points="871.71,-1629.48 868.21,-1619.48 864.71,-1629.48 871.71,-1629.48"/>
<text text-anchor="middle" x="881.34" y="-1636.69" font-family="Times,serif" font-size="14.00">CFG</text>
</g>
<!-- 128849018881 -->
<g id="node24" class="node">
<title>128849018881</title>
<ellipse fill="none" stroke="salmon" cx="868.21" cy="-1459.84" rx="123.21" ry="35.89"/>
<text text-anchor="middle" x="868.21" y="-1467.91" font-family="Times,serif" font-size="14.00">[METHOD_RETURN] @ 1</text>
<text text-anchor="middle" x="868.21" y="-1453.66" font-family="Times,serif" font-size="14.00">BY_VALUE</text>
<text text-anchor="middle" x="868.21" y="-1439.41" font-family="Times,serif" font-size="14.00">RET</text>
</g>
<!-- 124554051584&#45;&gt;128849018881 -->
<g id="edge40" class="edge">
<title>124554051584&#45;&gt;128849018881</title>
<path fill="none" stroke="lightsalmon" d="M868.21,-1545.5C868.21,-1533.53 868.21,-1519.99 868.21,-1507.29"/>
<polygon fill="lightsalmon" stroke="lightsalmon" points="871.71,-1507.46 868.21,-1497.46 864.71,-1507.46 871.71,-1507.46"/>
<text text-anchor="middle" x="881.34" y="-1514.67" font-family="Times,serif" font-size="14.00">CFG</text>
</g>
<!-- 111669149698 -->
<g id="node22" class="node">
<title>111669149698</title>
<ellipse fill="none" stroke="firebrick" cx="1111.21" cy="-1703.88" rx="92.98" ry="35.89"/>
<text text-anchor="middle" x="1111.21" y="-1711.95" font-family="Times,serif" font-size="14.00">[METHOD] @ 1</text>
<text text-anchor="middle" x="1111.21" y="-1697.7" font-family="Times,serif" font-size="14.00">&lt;includes&gt;:&lt;global&gt;</text>
<text text-anchor="middle" x="1111.21" y="-1683.45" font-family="Times,serif" font-size="14.00">None</text>
</g>
<!-- 128849018882 -->
<g id="node23" class="node">
<title>128849018882</title>
<ellipse fill="none" stroke="salmon" cx="1111.21" cy="-1581.86" rx="123.21" ry="35.89"/>
<text text-anchor="middle" x="1111.21" y="-1589.93" font-family="Times,serif" font-size="14.00">[METHOD_RETURN] @ 1</text>
<text text-anchor="middle" x="1111.21" y="-1575.68" font-family="Times,serif" font-size="14.00">BY_VALUE</text>
<text text-anchor="middle" x="1111.21" y="-1561.43" font-family="Times,serif" font-size="14.00">RET</text>
</g>
<!-- 111669149698&#45;&gt;128849018882 -->
<g id="edge39" class="edge">
<title>111669149698&#45;&gt;128849018882</title>
<path fill="none" stroke="lightsalmon" d="M1111.21,-1667.52C1111.21,-1655.55 1111.21,-1642.01 1111.21,-1629.31"/>
<polygon fill="lightsalmon" stroke="lightsalmon" points="1114.71,-1629.48 1111.21,-1619.48 1107.71,-1629.48 1114.71,-1629.48"/>
<text text-anchor="middle" x="1124.34" y="-1636.69" font-family="Times,serif" font-size="14.00">CFG</text>
</g>
</g>
</svg>
