<?xml version="1.0" encoding="UTF-8" standalone="no"?>
<!DOCTYPE svg PUBLIC "-//W3C//DTD SVG 1.1//EN"
 "http://www.w3.org/Graphics/SVG/1.1/DTD/svg11.dtd">
<!-- Generated by graphviz version 12.2.1 (20241206.2353)
 -->
<!-- Title: Merged cpp Graph Pages: 1 -->
<svg width="645pt" height="752pt"
 viewBox="0.00 0.00 645.47 751.50" xmlns="http://www.w3.org/2000/svg" xmlns:xlink="http://www.w3.org/1999/xlink">
<g id="graph0" class="graph" transform="scale(1 1) rotate(0) translate(4 747.5)">
<title>Merged cpp Graph</title>
<polygon fill="white" stroke="none" points="-4,4 -4,-747.5 641.47,-747.5 641.47,4 -4,4"/>
<!-- 30064771072 -->
<g id="node1" class="node">
<title>30064771072</title>
<polygon fill="none" stroke="crimson" points="399.5,-555.75 256.75,-555.75 256.75,-505 399.5,-505 399.5,-555.75"/>
<text text-anchor="middle" x="328.12" y="-538.45" font-family="Times,serif" font-size="14.00">[CALL] @ 5</text>
<text text-anchor="middle" x="328.12" y="-524.2" font-family="Times,serif" font-size="14.00">&lt;operator&gt;.assignment</text>
<text text-anchor="middle" x="328.12" y="-509.95" font-family="Times,serif" font-size="14.00">x = 2</text>
</g>
<!-- 30064771073 -->
<g id="node2" class="node">
<title>30064771073</title>
<polygon fill="none" stroke="crimson" points="398.5,-454.75 255.75,-454.75 255.75,-404 398.5,-404 398.5,-454.75"/>
<text text-anchor="middle" x="327.12" y="-437.45" font-family="Times,serif" font-size="14.00">[CALL] @ 6</text>
<text text-anchor="middle" x="327.12" y="-423.2" font-family="Times,serif" font-size="14.00">&lt;operator&gt;.assignment</text>
<text text-anchor="middle" x="327.12" y="-408.95" font-family="Times,serif" font-size="14.00">x = 0</text>
</g>
<!-- 30064771072&#45;&gt;30064771073 -->
<g id="edge1" class="edge">
<title>30064771072&#45;&gt;30064771073</title>
<path fill="none" stroke="lightsalmon" d="M327.88,-504.65C327.76,-493.07 327.62,-479.06 327.49,-466.34"/>
<polygon fill="lightsalmon" stroke="lightsalmon" points="330.99,-466.61 327.39,-456.64 323.99,-466.68 330.99,-466.61"/>
<text text-anchor="middle" x="340.81" y="-473.7" font-family="Times,serif" font-size="14.00">CFG</text>
</g>
<!-- 30064771074 -->
<g id="node3" class="node">
<title>30064771074</title>
<polygon fill="none" stroke="crimson" points="392.12,-353.75 262.12,-353.75 262.12,-303 392.12,-303 392.12,-353.75"/>
<text text-anchor="middle" x="327.12" y="-336.45" font-family="Times,serif" font-size="14.00">[CALL] @ 7</text>
<text text-anchor="middle" x="327.12" y="-322.2" font-family="Times,serif" font-size="14.00">&lt;operator&gt;.lessThan</text>
<text text-anchor="middle" x="327.12" y="-307.95" font-family="Times,serif" font-size="14.00">x &lt; 10</text>
</g>
<!-- 30064771073&#45;&gt;30064771074 -->
<g id="edge2" class="edge">
<title>30064771073&#45;&gt;30064771074</title>
<path fill="none" stroke="lightsalmon" d="M310.92,-403.7C308.01,-398.09 305.42,-392.02 303.88,-386 302.07,-378.97 302.89,-371.67 305.05,-364.73"/>
<polygon fill="lightsalmon" stroke="lightsalmon" points="308.22,-366.21 308.79,-355.63 301.75,-363.55 308.22,-366.21"/>
<text text-anchor="middle" x="317" y="-372.7" font-family="Times,serif" font-size="14.00">CFG</text>
</g>
<!-- 30064771073&#45;&gt;30064771074 -->
<g id="edge3" class="edge">
<title>30064771073&#45;&gt;30064771074</title>
<path fill="none" stroke="lightgreen" d="M329.39,-403.58C330.04,-393.68 330.49,-382.18 330.12,-371.75 330.05,-369.68 329.96,-367.56 329.85,-365.42"/>
<polygon fill="lightgreen" stroke="lightgreen" points="333.35,-365.29 329.26,-355.52 326.36,-365.71 333.35,-365.29"/>
<text text-anchor="middle" x="352.38" y="-372.7" font-family="Times,serif" font-size="14.00">DDG: x</text>
</g>
<!-- 146028888064 -->
<g id="node4" class="node">
<title>146028888064</title>
<polygon fill="none" stroke="lightpink" points="144.62,-144.62 29.62,-144.62 29.62,-108.12 144.62,-108.12 144.62,-144.62"/>
<text text-anchor="middle" x="87.12" y="-127.33" font-family="Times,serif" font-size="14.00">[RETURN] @ 11</text>
<text text-anchor="middle" x="87.12" y="-113.08" font-family="Times,serif" font-size="14.00">return x;</text>
</g>
<!-- 30064771074&#45;&gt;146028888064 -->
<g id="edge6" class="edge">
<title>30064771074&#45;&gt;146028888064</title>
<path fill="none" stroke="lightsalmon" d="M261.82,-318.26C190.83,-306.85 84.23,-284.84 59.88,-252.75 38.26,-224.27 54.46,-182.22 69.55,-154.81"/>
<polygon fill="lightsalmon" stroke="lightsalmon" points="72.45,-156.8 74.44,-146.39 66.39,-153.28 72.45,-156.8"/>
<text text-anchor="middle" x="73" y="-221.2" font-family="Times,serif" font-size="14.00">CFG</text>
</g>
<!-- 30064771075 -->
<g id="node6" class="node">
<title>30064771075</title>
<polygon fill="none" stroke="crimson" points="438.5,-151.75 295.75,-151.75 295.75,-101 438.5,-101 438.5,-151.75"/>
<text text-anchor="middle" x="367.12" y="-134.45" font-family="Times,serif" font-size="14.00">[CALL] @ 9</text>
<text text-anchor="middle" x="367.12" y="-120.2" font-family="Times,serif" font-size="14.00">&lt;operator&gt;.assignment</text>
<text text-anchor="middle" x="367.12" y="-105.95" font-family="Times,serif" font-size="14.00">x = x + 1</text>
</g>
<!-- 30064771074&#45;&gt;30064771075 -->
<g id="edge7" class="edge">
<title>30064771074&#45;&gt;30064771075</title>
<path fill="none" stroke="lightgreen" d="M348.21,-302.6C358.49,-288.87 369.78,-270.93 375.12,-252.75 383.76,-223.35 380.51,-188.46 375.82,-162.96"/>
<polygon fill="lightgreen" stroke="lightgreen" points="379.31,-162.55 373.9,-153.44 372.44,-163.94 379.31,-162.55"/>
<text text-anchor="middle" x="402.64" y="-221.2" font-family="Times,serif" font-size="14.00">DDG: x</text>
</g>
<!-- 30064771076 -->
<g id="node7" class="node">
<title>30064771076</title>
<polygon fill="none" stroke="crimson" points="594.88,-252.75 469.38,-252.75 469.38,-202 594.88,-202 594.88,-252.75"/>
<text text-anchor="middle" x="532.12" y="-235.45" font-family="Times,serif" font-size="14.00">[CALL] @ 9</text>
<text text-anchor="middle" x="532.12" y="-221.2" font-family="Times,serif" font-size="14.00">&lt;operator&gt;.addition</text>
<text text-anchor="middle" x="532.12" y="-206.95" font-family="Times,serif" font-size="14.00">x + 1</text>
</g>
<!-- 30064771074&#45;&gt;30064771076 -->
<g id="edge8" class="edge">
<title>30064771074&#45;&gt;30064771076</title>
<path fill="none" stroke="lightsalmon" d="M392.46,-323.78C427.35,-318.99 469.31,-308.34 500.12,-285 507.68,-279.28 513.71,-271.23 518.42,-262.99"/>
<polygon fill="lightsalmon" stroke="lightsalmon" points="521.41,-264.83 522.83,-254.33 515.17,-261.66 521.41,-264.83"/>
<text text-anchor="middle" x="526.47" y="-271.7" font-family="Times,serif" font-size="14.00">CFG</text>
</g>
<!-- 30064771074&#45;&gt;30064771076 -->
<g id="edge9" class="edge">
<title>30064771074&#45;&gt;30064771076</title>
<path fill="none" stroke="lightgreen" d="M383,-302.72C395.59,-297.02 408.86,-290.89 421.12,-285 438.73,-276.55 457.73,-267.01 474.94,-258.21"/>
<polygon fill="lightgreen" stroke="lightgreen" points="476.2,-261.5 483.5,-253.82 473,-255.27 476.2,-261.5"/>
<text text-anchor="middle" x="470.87" y="-271.7" font-family="Times,serif" font-size="14.00">DDG: x</text>
</g>
<!-- 68719476741 -->
<g id="node8" class="node">
<title>68719476741</title>
<polygon fill="none" stroke="limegreen" points="229.38,-252.75 94.88,-252.75 94.88,-202 229.38,-202 229.38,-252.75"/>
<text text-anchor="middle" x="162.12" y="-235.45" font-family="Times,serif" font-size="14.00">[IDENTIFIER] @ 11</text>
<text text-anchor="middle" x="162.12" y="-221.2" font-family="Times,serif" font-size="14.00">x</text>
<text text-anchor="middle" x="162.12" y="-206.95" font-family="Times,serif" font-size="14.00">x</text>
</g>
<!-- 30064771074&#45;&gt;68719476741 -->
<g id="edge10" class="edge">
<title>30064771074&#45;&gt;68719476741</title>
<path fill="none" stroke="lightgreen" d="M261.77,-311.75C242.98,-305.35 223.17,-296.65 206.88,-285 198.19,-278.79 190.33,-270.45 183.71,-262.07"/>
<polygon fill="lightgreen" stroke="lightgreen" points="186.7,-260.23 177.93,-254.29 181.08,-264.41 186.7,-260.23"/>
<text text-anchor="middle" x="229" y="-271.7" font-family="Times,serif" font-size="14.00">DDG: x</text>
</g>
<!-- 128849018880 -->
<g id="node5" class="node">
<title>128849018880</title>
<polygon fill="none" stroke="salmon" points="174.25,-50.75 0,-50.75 0,0 174.25,0 174.25,-50.75"/>
<text text-anchor="middle" x="87.12" y="-33.45" font-family="Times,serif" font-size="14.00">[METHOD_RETURN] @ 3</text>
<text text-anchor="middle" x="87.12" y="-19.2" font-family="Times,serif" font-size="14.00">BY_VALUE</text>
<text text-anchor="middle" x="87.12" y="-4.95" font-family="Times,serif" font-size="14.00">RET</text>
</g>
<!-- 146028888064&#45;&gt;128849018880 -->
<g id="edge4" class="edge">
<title>146028888064&#45;&gt;128849018880</title>
<path fill="none" stroke="lightsalmon" d="M74.81,-107.65C70.45,-100.36 66.08,-91.62 63.88,-83 62.07,-75.97 62.89,-68.67 65.05,-61.73"/>
<polygon fill="lightsalmon" stroke="lightsalmon" points="68.22,-63.21 68.79,-52.63 61.75,-60.55 68.22,-63.21"/>
<text text-anchor="middle" x="77" y="-69.7" font-family="Times,serif" font-size="14.00">CFG</text>
</g>
<!-- 146028888064&#45;&gt;128849018880 -->
<g id="edge5" class="edge">
<title>146028888064&#45;&gt;128849018880</title>
<path fill="none" stroke="lightgreen" d="M88.66,-107.66C89.24,-100.07 89.84,-91.11 90.12,-83 90.36,-76.4 90.26,-69.37 90,-62.59"/>
<polygon fill="lightgreen" stroke="lightgreen" points="93.5,-62.48 89.47,-52.69 86.51,-62.86 93.5,-62.48"/>
<text text-anchor="middle" x="130.38" y="-69.7" font-family="Times,serif" font-size="14.00">DDG: &lt;RET&gt;</text>
</g>
<!-- 30064771075&#45;&gt;30064771074 -->
<g id="edge11" class="edge">
<title>30064771075&#45;&gt;30064771074</title>
<path fill="none" stroke="lightsalmon" d="M323.23,-152.06C305.79,-164.51 287.79,-181.37 278.88,-202 265.67,-232.57 282.2,-268.03 299.41,-293.43"/>
<polygon fill="lightsalmon" stroke="lightsalmon" points="296.44,-295.29 305.09,-301.4 302.14,-291.23 296.44,-295.29"/>
<text text-anchor="middle" x="292" y="-221.2" font-family="Times,serif" font-size="14.00">CFG</text>
</g>
<!-- 30064771075&#45;&gt;30064771074 -->
<g id="edge12" class="edge">
<title>30064771075&#45;&gt;30064771074</title>
<path fill="none" stroke="lightgreen" d="M349.83,-151.98C341.08,-165.95 331.38,-184.16 326.88,-202 319.42,-231.51 320.19,-266.2 322.42,-291.6"/>
<polygon fill="lightgreen" stroke="lightgreen" points="318.92,-291.8 323.41,-301.4 325.88,-291.1 318.92,-291.8"/>
<text text-anchor="middle" x="349" y="-221.2" font-family="Times,serif" font-size="14.00">DDG: x</text>
</g>
<!-- 30064771076&#45;&gt;30064771075 -->
<g id="edge13" class="edge">
<title>30064771076&#45;&gt;30064771075</title>
<path fill="none" stroke="lightsalmon" d="M490.91,-201.65C468.86,-188.42 441.51,-172.01 418.13,-157.98"/>
<polygon fill="lightsalmon" stroke="lightsalmon" points="420.06,-155.05 409.68,-152.91 416.45,-161.05 420.06,-155.05"/>
<text text-anchor="middle" x="472.63" y="-170.7" font-family="Times,serif" font-size="14.00">CFG</text>
</g>
<!-- 68719476741&#45;&gt;146028888064 -->
<g id="edge17" class="edge">
<title>68719476741&#45;&gt;146028888064</title>
<path fill="none" stroke="lightgreen" d="M143.39,-201.65C132.43,-187.18 118.59,-168.9 107.37,-154.1"/>
<polygon fill="lightgreen" stroke="lightgreen" points="110.18,-152.02 101.35,-146.16 104.6,-156.24 110.18,-152.02"/>
<text text-anchor="middle" x="151.24" y="-170.7" font-family="Times,serif" font-size="14.00">DDG: x</text>
</g>
<!-- 111669149696 -->
<g id="node9" class="node">
<title>111669149696</title>
<polygon fill="none" stroke="firebrick" points="389.75,-656.75 278.5,-656.75 278.5,-606 389.75,-606 389.75,-656.75"/>
<text text-anchor="middle" x="334.12" y="-639.45" font-family="Times,serif" font-size="14.00">[METHOD] @ 3</text>
<text text-anchor="middle" x="334.12" y="-625.2" font-family="Times,serif" font-size="14.00">main:int()</text>
<text text-anchor="middle" x="334.12" y="-610.95" font-family="Times,serif" font-size="14.00">None</text>
</g>
<!-- 111669149696&#45;&gt;30064771072 -->
<g id="edge14" class="edge">
<title>111669149696&#45;&gt;30064771072</title>
<path fill="none" stroke="lightsalmon" d="M332.63,-605.65C331.92,-594.07 331.08,-580.06 330.3,-567.34"/>
<polygon fill="lightsalmon" stroke="lightsalmon" points="333.82,-567.41 329.72,-557.64 326.83,-567.83 333.82,-567.41"/>
<text text-anchor="middle" x="344.61" y="-574.7" font-family="Times,serif" font-size="14.00">CFG</text>
</g>
<!-- 124554051584 -->
<g id="node10" class="node">
<title>124554051584</title>
<polygon fill="none" stroke="orangered" points="575.88,-555.75 432.38,-555.75 432.38,-505 575.88,-505 575.88,-555.75"/>
<text text-anchor="middle" x="504.12" y="-538.45" font-family="Times,serif" font-size="14.00">[METHOD_REF] @ 3</text>
<text text-anchor="middle" x="504.12" y="-524.2" font-family="Times,serif" font-size="14.00">main:int()</text>
<text text-anchor="middle" x="504.12" y="-509.95" font-family="Times,serif" font-size="14.00">main</text>
</g>
<!-- 128849018881 -->
<g id="node11" class="node">
<title>128849018881</title>
<polygon fill="none" stroke="salmon" points="591.25,-454.75 417,-454.75 417,-404 591.25,-404 591.25,-454.75"/>
<text text-anchor="middle" x="504.12" y="-437.45" font-family="Times,serif" font-size="14.00">[METHOD_RETURN] @ 1</text>
<text text-anchor="middle" x="504.12" y="-423.2" font-family="Times,serif" font-size="14.00">BY_VALUE</text>
<text text-anchor="middle" x="504.12" y="-408.95" font-family="Times,serif" font-size="14.00">RET</text>
</g>
<!-- 124554051584&#45;&gt;128849018881 -->
<g id="edge15" class="edge">
<title>124554051584&#45;&gt;128849018881</title>
<path fill="none" stroke="lightsalmon" d="M504.12,-504.65C504.12,-493.07 504.12,-479.06 504.12,-466.34"/>
<polygon fill="lightsalmon" stroke="lightsalmon" points="507.63,-466.64 504.13,-456.64 500.63,-466.64 507.63,-466.64"/>
<text text-anchor="middle" x="517.25" y="-473.7" font-family="Times,serif" font-size="14.00">CFG</text>
</g>
<!-- 111669149697 -->
<g id="node12" class="node">
<title>111669149697</title>
<polygon fill="none" stroke="firebrick" points="577,-656.75 431.25,-656.75 431.25,-606 577,-606 577,-656.75"/>
<text text-anchor="middle" x="504.12" y="-639.45" font-family="Times,serif" font-size="14.00">[METHOD] @ 1</text>
<text text-anchor="middle" x="504.12" y="-625.2" font-family="Times,serif" font-size="14.00">data_flow.cpp:&lt;global&gt;</text>
<text text-anchor="middle" x="504.12" y="-610.95" font-family="Times,serif" font-size="14.00">None</text>
</g>
<!-- 111669149697&#45;&gt;124554051584 -->
<g id="edge16" class="edge">
<title>111669149697&#45;&gt;124554051584</title>
<path fill="none" stroke="lightsalmon" d="M504.12,-605.65C504.12,-594.07 504.12,-580.06 504.12,-567.34"/>
<polygon fill="lightsalmon" stroke="lightsalmon" points="507.63,-567.64 504.13,-557.64 500.63,-567.64 507.63,-567.64"/>
<text text-anchor="middle" x="517.25" y="-574.7" font-family="Times,serif" font-size="14.00">CFG</text>
</g>
<!-- VIRTUAL_ROOT -->
<g id="node13" class="node">
<title>VIRTUAL_ROOT</title>
<polygon fill="none" stroke="black" points="508.12,-743.5 330.12,-743.5 330.12,-707 508.12,-707 508.12,-743.5"/>
<text text-anchor="middle" x="419.12" y="-726.2" font-family="Times,serif" font-size="14.00">[VIRTUAL_ROOT] @ None</text>
<text text-anchor="middle" x="419.12" y="-711.95" font-family="Times,serif" font-size="14.00">None</text>
</g>
<!-- VIRTUAL_ROOT&#45;&gt;111669149696 -->
<g id="edge18" class="edge">
<title>VIRTUAL_ROOT&#45;&gt;111669149696</title>
<path fill="none" stroke="black" d="M355.18,-706.6C347.62,-702.02 340.84,-696.25 335.88,-689 331.75,-682.98 329.87,-675.7 329.28,-668.39"/>
<polygon fill="black" stroke="black" points="332.78,-668.57 329.27,-658.57 325.78,-668.57 332.78,-668.57"/>
<text text-anchor="middle" x="409" y="-675.7" font-family="Times,serif" font-size="14.00">VIRTUAL_ROOT_EDGE</text>
</g>
<!-- VIRTUAL_ROOT&#45;&gt;111669149697 -->
<g id="edge19" class="edge">
<title>VIRTUAL_ROOT&#45;&gt;111669149697</title>
<path fill="none" stroke="black" d="M460.48,-706.55C468.42,-701.74 476.12,-695.9 482.12,-689 487.44,-682.89 491.55,-675.34 494.69,-667.78"/>
<polygon fill="black" stroke="black" points="497.88,-669.24 498,-658.65 491.3,-666.85 497.88,-669.24"/>
<text text-anchor="middle" x="564.34" y="-675.7" font-family="Times,serif" font-size="14.00">VIRTUAL_ROOT_EDGE</text>
</g>
</g>
</svg>
